# xmcd
#
# Track frame offsets:
#	150
#	7702
#	14034
#	22348
#	27932
#	37282
#	43425
#	49365
#	57410
#	67283
#	74162
#	83802
#	89474
#	96321
#	101000
#	106457
#	109960
#	117441
#	123248
#	128712
#	135496
#	139798
#	146070
#	149187
#	153439
#	156787
#	162312
#	173155
#	180198
#	187088
#	190334
#	196789
#	203754
#	214331
#
# Disc length: 2943 seconds
#
# Revision: 0
# Processed by: cddbd v1.5.1PL0 Copyright (c) Steve Scherf et al.
# Submitted via: dBpowerAMP V4.0
#
DISCID=160b7d22
DTITLE=Mr. Pitiful - Medley Of 34 Golden Hits - Rancheras - Charro - Rock and Roll - Boleros
DYEAR=1900
DGENRE=Tejano
TTITLE0=Un Cielo (Exitos Rancheros 1)
TTITLE1=Flecha Envenenada (Exitos Rancheros 2)
TTITLE2=Mala Cara (Exitos Rancheros 3)
TTITLE3=Palabra De Hombre (Charro Medley 1)
TTITLE4=La Mala Pagadora (Charro Medley 2)
TTITLE5=Se Me Hizo Facil ( Charro Medley 3)
TTITLE6=Mi Unico Camino (Charro Medley 4)
TTITLE7=Volver Volver (Charro Medley 5)
TTITLE8=Mr. Pitiful (Rock and Roll 1)
TTITLE9=Mustang Sally (Rock and Roll 2)
TTITLE10=Farther On Up The Road (Rock and Roll 3)
TTITLE11=Shake Rattle and Roll (Rock and Roll 4)
TTITLE12=Amor Mio (Bolero De Oro 1)
TTITLE13=Si Dios Me Quita la Vida (Bolero De Oro 2)
TTITLE14=Amor De La Calle (Bolero De Oro 3)
TTITLE15=Parece Que Fue Ayer (Bolero De Oro 4)
TTITLE16=Si Te vas De Mi (Bolero De Oro 5)
TTITLE17=Un Nuevo Contrato (Ranchera Del Pasado 1)
TTITLE18=Con El Agua Hasta El Cuello (Ranchera Del Pasado 2)
TTITLE19=Ojitos Sonadores (Ranchera Del Pasado 3)
TTITLE20=Tears On My Pillow (Oldies 1)
TTITLE21=When A Man Loves A Woman (Oldies 2)
TTITLE22=What's Your Name (Oldies 3)
TTITLE23=Silhouette (Oldies 4)
TTITLE24=In The Still Of The Night (Oldies 5)
TTITLE25=Stand By Me (Oldies 6)
TTITLE26=My Girl (Oldies 7)
TTITLE27=Gema (Boleros Romanticos 1)
TTITLE28=Sabra Dios (Boleros Romanticos 2)
TTITLE29=Dios No Lo Quiera (Boleros Romanticos 3)
TTITLE30=Estoy Perdido (Boleros Romanticos 4)
TTITLE31=La Barca (Boleros Romanticos 5)
TTITLE32=Blue Monday (Fats Domino Special 1)
TTITLE33=Blueberry Hill (Fats Domino Special 2)
EXTD=Artist - Ruben Y Alfonso Ramos\nAlbum Medley Of 34 Golden Hits\nGenre -  Tejano
EXTT0=
EXTT1=
EXTT2=
EXTT3=
EXTT4=
EXTT5=
EXTT6=
EXTT7=
EXTT8=
EXTT9=
EXTT10=
EXTT11=
EXTT12=
EXTT13=
EXTT14=
EXTT15=
EXTT16=
EXTT17=
EXTT18=
EXTT19=
EXTT20=
EXTT21=
EXTT22=
EXTT23=
EXTT24=
EXTT25=
EXTT26=
EXTT27=
EXTT28=
EXTT29=
EXTT30=
EXTT31=
EXTT32=
EXTT33=
PLAYORDER=
